<?xml version="1.0" encoding="UTF-8" standalone="no"?>
<!-- Created with Inkscape (http://www.inkscape.org/) -->

<svg
   width="228mm"
   height="313mm"
   viewBox="0 0 228 313"
   version="1.1"
   id="svg1"
   inkscape:version="1.3.2 (091e20e, 2023-11-25, custom)"
   sodipodi:docname="logo_2.svg"
   xmlns:inkscape="http://www.inkscape.org/namespaces/inkscape"
   xmlns:sodipodi="http://sodipodi.sourceforge.net/DTD/sodipodi-0.dtd"
   xmlns="http://www.w3.org/2000/svg"
   xmlns:svg="http://www.w3.org/2000/svg">
  <sodipodi:namedview
     id="namedview1"
     pagecolor="#ffffff"
     bordercolor="#000000"
     borderopacity="0.25"
     inkscape:showpageshadow="2"
     inkscape:pageopacity="0.0"
     inkscape:pagecheckerboard="0"
     inkscape:deskcolor="#d1d1d1"
     inkscape:document-units="mm"
     inkscape:zoom="1.9578168"
     inkscape:cx="412.70461"
     inkscape:cy="496.21599"
     inkscape:window-width="1920"
     inkscape:window-height="991"
     inkscape:window-x="-9"
     inkscape:window-y="-9"
     inkscape:window-maximized="1"
     inkscape:current-layer="layer1" />
  <defs
     id="defs1" />
  <g
     inkscape:label="Layer 1"
     inkscape:groupmode="layer"
     id="layer1">
    <path
       d="m 114.03541,121.84062 c 0,1.57887 -0.52916,3.175 -1.32291,4.2095 -1.05834,1.08217 -1.05834,1.74363 -4.09517,1.74363 -3.03684,0 -3.04858,-0.49871 -4.20949,-1.74363 -1.16091,-1.24492 -1.22034,-2.49834 -1.22034,-4.0772 h 1.05833 c 0,2.24895 0.90985,3.32935 0.90985,3.32935 0,0 0.81582,1.43386 3.46165,1.43386 2.64583,0 3.30142,-1.43386 3.30142,-1.43386 0,0 0.90807,-1.60956 0.90807,-3.46165 z"
       fill="#2f2105"
       id="path1"
       style="stroke-width:0.264583" />
    <path
       d="m 112.8341,123.96452 c 0.10742,0.35176 0.32541,0.65952 0.62164,0.87756 0.2962,0.21805 0.65484,0.33478 1.02264,0.33282 0.3678,-0.002 0.72517,-0.12247 1.01907,-0.34364 0.29387,-0.22116 0.50861,-0.53123 0.6123,-0.88412 0.10369,-0.35289 0.0908,-0.72982 -0.0367,-1.07481 -0.12753,-0.345 -0.3629,-0.63967 -0.67122,-0.84028 -0.30829,-0.2006 -0.67305,-0.29644 -1.04013,-0.27328 -0.36708,0.0232 -0.71691,0.16407 -0.99756,0.40182 l 0.56933,0.67202 c 0.13608,-0.11528 0.3057,-0.1836 0.48369,-0.19483 0.17798,-0.0112 0.35483,0.0352 0.50432,0.13251 0.14949,0.0973 0.26363,0.24014 0.32546,0.40742 0.0618,0.16728 0.0681,0.35004 0.0178,0.52114 -0.0503,0.17111 -0.15441,0.32145 -0.29689,0.42867 -0.1425,0.10727 -0.31578,0.16569 -0.49411,0.16664 -0.17835,9.5e-4 -0.35224,-0.0556 -0.49585,-0.16137 -0.14365,-0.10573 -0.24935,-0.25494 -0.30142,-0.42551 z"
       fill="#2f2105"
       id="path2"
       style="stroke-width:0.264583" />
    <path
       d="m 112.18333,121.86575 c 0,1.15117 -0.39026,2.25519 -1.08492,3.0692 -0.69467,0.81399 -1.63685,1.2713 -2.61925,1.2713 -0.98239,0 -1.92458,-0.45731 -2.61924,-1.2713 -0.69466,-0.81401 -1.08492,-1.91803 -1.08492,-3.0692 0,0 2.11666,0.94949 3.70416,0 1.5875,-0.9495 3.70417,0 3.70417,0 z"
       fill="#ff912b"
       id="path3"
       style="stroke-width:0.264583" />
    <path
       d="m 113.4415,128.5875 h -9.6601 c -0.18188,0 -0.32932,0.17769 -0.32932,0.39687 0,0.21919 0.14744,0.39688 0.32932,0.39688 h 9.6601 c 0.18188,0 0.32933,-0.17769 0.32933,-0.39688 0,-0.21918 -0.14745,-0.39687 -0.32933,-0.39687 z"
       fill="#2f2105"
       id="path4"
       style="stroke-width:0.264583" />
  </g>
</svg>
